<svg version="1.1" xmlns="http://www.w3.org/2000/svg" viewBox="0 0 1162.6198272705078 768.7788218549592" width="1162.6198272705078" height="768.7788218549592">
  <!-- svg-source:excalidraw -->
  
  <defs>
    <style class="style-fonts">
      @font-face {
        font-family: "Virgil";
        src: url("https://excalidraw.com/Virgil.woff2");
      }
      @font-face {
        font-family: "Cascadia";
        src: url("https://excalidraw.com/Cascadia.woff2");
      }
      @font-face {
        font-family: "Assistant";
        src: url("https://excalidraw.com/Assistant-Regular.woff2");
      }
    </style>
    
  </defs>
  <rect x="0" y="0" width="1162.6198272705078" height="768.7788218549592" fill="#ffffff"></rect><g stroke-linecap="round"><g transform="translate(171.64608199491636 66.78444502853324) rotate(0 0 345.5)"><path d="M-0.22 -0.77 C0.03 114.25, 0.35 574.35, 0.5 689.84 M-1.79 1.43 C-1.56 116.59, -0.53 575.94, -0.18 690.77" stroke="#1e1e1e" stroke-width="2" fill="none"></path></g></g><mask></mask><g transform="translate(133.13002014160156 10) rotate(0 37.86997985839844 17.5)"><text x="37.86997985839844" y="24.528" font-family="Virgil, Segoe UI Emoji" font-size="28px" fill="#1e1e1e" text-anchor="middle" style="white-space: pre;" direction="ltr" dominant-baseline="alphabetic">Client</text></g><g stroke-linecap="round"><g transform="translate(527.5056272453774 67.00380452178882) rotate(0 0 345.5)"><path d="M1.02 -0.99 C1.19 114.16, 0.6 574.64, 0.6 690.02 M0.1 1.1 C0.19 116.45, -0.16 575.77, -0.03 691.04" stroke="#1e1e1e" stroke-width="2" fill="none"></path></g></g><mask></mask><g transform="translate(404.8980484008789 10) rotate(0 123.1019515991211 17.5)"><text x="123.1019515991211" y="24.528" font-family="Virgil, Segoe UI Emoji" font-size="28px" fill="#1e1e1e" text-anchor="middle" style="white-space: pre;" direction="ltr" dominant-baseline="alphabetic">DNS Proxy Server</text></g><g stroke-linecap="round"><g transform="translate(921.5056272453776 66.00380452178882) rotate(0 0 345.5)"><path d="M-0.11 -0.2 C-0.23 115.13, -0.04 576.03, -0.2 691.16 M-1.62 -1.36 C-1.97 114.27, -1.73 577.28, -1.25 692.78" stroke="#1e1e1e" stroke-width="2" fill="none"></path></g></g><mask></mask><g transform="translate(822.3400344848633 10) rotate(0 100.65996551513672 17.5)"><text x="100.65996551513672" y="24.528" font-family="Virgil, Segoe UI Emoji" font-size="28px" fill="#1e1e1e" text-anchor="middle" style="white-space: pre;" direction="ltr" dominant-baseline="alphabetic">Multicast DNS</text></g><g transform="translate(37 64) rotate(0 62.349945068359375 25)"><text x="0" y="17.52" font-family="Virgil, Segoe UI Emoji" font-size="20px" fill="#1e1e1e" text-anchor="start" style="white-space: pre;" direction="ltr" dominant-baseline="alphabetic">Looking for</text><text x="0" y="42.519999999999996" font-family="Virgil, Segoe UI Emoji" font-size="20px" fill="#1e1e1e" text-anchor="start" style="white-space: pre;" direction="ltr" dominant-baseline="alphabetic">example.local</text></g><g transform="translate(536 146.99996042251587) rotate(0 93.21992492675781 25)"><text x="0" y="17.52" font-family="Virgil, Segoe UI Emoji" font-size="20px" fill="#1e1e1e" text-anchor="start" style="white-space: pre;" direction="ltr" dominant-baseline="alphabetic">Convert DNS query</text><text x="0" y="42.519999999999996" font-family="Virgil, Segoe UI Emoji" font-size="20px" fill="#1e1e1e" text-anchor="start" style="white-space: pre;" direction="ltr" dominant-baseline="alphabetic">to mDNS query</text></g><g stroke-linecap="round"><g transform="translate(555.5676981300115 229.34569556563815) rotate(0 165.00000000000006 47.5)"><path d="M0.49 0.34 C55.56 16.27, 275.66 78.58, 330.53 94.35 M-0.71 -0.52 C54.24 15.66, 274.95 79.42, 329.86 95.55" stroke="#1e1e1e" stroke-width="2" fill="none"></path></g><g transform="translate(555.5676981300115 229.34569556563815) rotate(0 165.00000000000006 47.5)"><path d="M304.91 97.2 C313.26 97.46, 319.37 95.53, 329.86 95.55 M304.91 97.2 C311.58 97.31, 320.52 96.24, 329.86 95.55" stroke="#1e1e1e" stroke-width="2" fill="none"></path></g><g transform="translate(555.5676981300115 229.34569556563815) rotate(0 165.00000000000006 47.5)"><path d="M309.69 80.78 C316.39 86.17, 321.01 89.34, 329.86 95.55 M309.69 80.78 C314.81 85.81, 322.31 89.64, 329.86 95.55" stroke="#1e1e1e" stroke-width="2" fill="none"></path></g></g><mask></mask><g transform="translate(630.076410752014 275.7592578044961) rotate(16.049889357258643 73.90994262695312 25)"><text x="0" y="17.52" font-family="Virgil, Segoe UI Emoji" font-size="20px" fill="#1e1e1e" text-anchor="start" style="white-space: pre;" direction="ltr" dominant-baseline="alphabetic">mDNS query</text><text x="0" y="42.519999999999996" font-family="Virgil, Segoe UI Emoji" font-size="20px" fill="#1e1e1e" text-anchor="start" style="white-space: pre;" direction="ltr" dominant-baseline="alphabetic">A example.local</text></g><g stroke-linecap="round"><g transform="translate(184.08884243510192 110.32399185863073) rotate(0 165 47.5)"><path d="M-1.08 1.11 C53.93 16.88, 275.31 78.49, 330.47 94.17 M0.56 0.65 C55.42 16.58, 275.02 79.27, 329.77 95.27" stroke="#1e1e1e" stroke-width="2" fill="none"></path></g><g transform="translate(184.08884243510192 110.32399185863073) rotate(0 165 47.5)"><path d="M304.83 96.98 C315 97.41, 320.09 95.85, 329.77 95.27 M304.83 96.98 C312.43 97.44, 320.18 96.68, 329.77 95.27" stroke="#1e1e1e" stroke-width="2" fill="none"></path></g><g transform="translate(184.08884243510192 110.32399185863073) rotate(0 165 47.5)"><path d="M309.56 80.55 C318.1 86.42, 321.61 90.34, 329.77 95.27 M309.56 80.55 C315.78 86.2, 322.03 90.65, 329.77 95.27" stroke="#1e1e1e" stroke-width="2" fill="none"></path></g></g><mask></mask><g transform="translate(258.5975550571045 156.73755409748867) rotate(16.049889357258643 73.90994262695312 25)"><text x="0" y="17.52" font-family="Virgil, Segoe UI Emoji" font-size="20px" fill="#1e1e1e" text-anchor="start" style="white-space: pre;" direction="ltr" dominant-baseline="alphabetic">DNS query</text><text x="0" y="42.519999999999996" font-family="Virgil, Segoe UI Emoji" font-size="20px" fill="#1e1e1e" text-anchor="start" style="white-space: pre;" direction="ltr" dominant-baseline="alphabetic">A example.local</text></g><g transform="translate(950 384.99996042251587) rotate(0 101.3099136352539 37.5)"><text x="0" y="17.52" font-family="Virgil, Segoe UI Emoji" font-size="20px" fill="#1e1e1e" text-anchor="start" style="white-space: pre;" direction="ltr" dominant-baseline="alphabetic">Wait for someone to</text><text x="0" y="42.519999999999996" font-family="Virgil, Segoe UI Emoji" font-size="20px" fill="#1e1e1e" text-anchor="start" style="white-space: pre;" direction="ltr" dominant-baseline="alphabetic">respond with answer</text><text x="0" y="67.52" font-family="Virgil, Segoe UI Emoji" font-size="20px" fill="#1e1e1e" text-anchor="start" style="white-space: pre;" direction="ltr" dominant-baseline="alphabetic">(timeout is 1s)</text></g><g stroke-linecap="round"><g transform="translate(880.2362255767684 382.32399185863073) rotate(0 -165 47.5)"><path d="M1.09 -0.97 C-53.88 14.98, -275.37 78.47, -330.44 94.66 M0.21 1.13 C-54.91 17.36, -276.63 80.46, -331.62 96.02" stroke="#1e1e1e" stroke-width="2" fill="none"></path></g><g transform="translate(880.2362255767684 382.32399185863073) rotate(0 -165 47.5)"><path d="M-311.36 81.38 C-318.19 84.5, -322.21 90.01, -331.62 96.02 M-311.36 81.38 C-318.8 87.45, -327.01 92.34, -331.62 96.02" stroke="#1e1e1e" stroke-width="2" fill="none"></path></g><g transform="translate(880.2362255767684 382.32399185863073) rotate(0 -165 47.5)"><path d="M-306.69 97.83 C-314.54 96.87, -319.73 98.26, -331.62 96.02 M-306.69 97.83 C-315.95 97.33, -326.03 95.65, -331.62 96.02" stroke="#1e1e1e" stroke-width="2" fill="none"></path></g></g><mask></mask><g transform="translate(594.89165728548 428.5447245452775) rotate(343.9501106427414 143.32989501953125 25)"><text x="0" y="17.52" font-family="Virgil, Segoe UI Emoji" font-size="20px" fill="#1e1e1e" text-anchor="start" style="white-space: pre;" direction="ltr" dominant-baseline="alphabetic">mDNS response</text><text x="0" y="42.519999999999996" font-family="Virgil, Segoe UI Emoji" font-size="20px" fill="#1e1e1e" text-anchor="start" style="white-space: pre;" direction="ltr" dominant-baseline="alphabetic">A example.local 192.168.0.123</text></g><g transform="translate(536.7800750732422 375.99996042251587) rotate(0 115.18989562988281 25)"><text x="0" y="17.52" font-family="Virgil, Segoe UI Emoji" font-size="20px" fill="#1e1e1e" text-anchor="start" style="white-space: pre;" direction="ltr" dominant-baseline="alphabetic">Convert mDNS response</text><text x="0" y="42.519999999999996" font-family="Virgil, Segoe UI Emoji" font-size="20px" fill="#1e1e1e" text-anchor="start" style="white-space: pre;" direction="ltr" dominant-baseline="alphabetic">to DNS response</text></g><g stroke-linecap="round"><g transform="translate(516.4900502253208 482.0502947991738) rotate(0 -168 50)"><path d="M-0.79 -0.28 C-56.8 16.33, -280.46 83.51, -336.24 100.25 M1 -1.47 C-55.18 14.7, -281.16 81.09, -337.32 98.26" stroke="#1e1e1e" stroke-width="2" fill="none"></path></g><g transform="translate(516.4900502253208 482.0502947991738) rotate(0 -168 50)"><path d="M-317.26 83.34 C-323.42 87.1, -328.33 92.66, -337.32 98.26 M-317.26 83.34 C-322.47 88.22, -329.26 93.16, -337.32 98.26" stroke="#1e1e1e" stroke-width="2" fill="none"></path></g><g transform="translate(516.4900502253208 482.0502947991738) rotate(0 -168 50)"><path d="M-312.36 99.73 C-320.02 98.74, -326.34 99.57, -337.32 98.26 M-312.36 99.73 C-319.25 99.45, -327.57 99.26, -337.32 98.26" stroke="#1e1e1e" stroke-width="2" fill="none"></path></g></g><mask></mask><g transform="translate(223.14548193403243 533.2710274858205) rotate(343.9501106427414 143.32989501953125 25)"><text x="0" y="17.52" font-family="Virgil, Segoe UI Emoji" font-size="20px" fill="#1e1e1e" text-anchor="start" style="white-space: pre;" direction="ltr" dominant-baseline="alphabetic">DNS response</text><text x="0" y="42.519999999999996" font-family="Virgil, Segoe UI Emoji" font-size="20px" fill="#1e1e1e" text-anchor="start" style="white-space: pre;" direction="ltr" dominant-baseline="alphabetic">A example.local 192.168.0.123</text></g><g transform="translate(10 580.9999604225159) rotate(0 74.96993255615234 37.5)"><text x="0" y="17.52" font-family="Virgil, Segoe UI Emoji" font-size="20px" fill="#1e1e1e" text-anchor="start" style="white-space: pre;" direction="ltr" dominant-baseline="alphabetic">Now I know</text><text x="0" y="42.519999999999996" font-family="Virgil, Segoe UI Emoji" font-size="20px" fill="#1e1e1e" text-anchor="start" style="white-space: pre;" direction="ltr" dominant-baseline="alphabetic">example.local is</text><text x="0" y="67.52" font-family="Virgil, Segoe UI Emoji" font-size="20px" fill="#1e1e1e" text-anchor="start" style="white-space: pre;" direction="ltr" dominant-baseline="alphabetic">192.168.0.123</text></g></svg>